<svg width="87" height="28" viewBox="0 0 87 28" fill="none" xmlns="http://www.w3.org/2000/svg">
<path fill-rule="evenodd" clip-rule="evenodd" d="M1.77965 0.116025L7.14242 0.15977C7.39987 0.161982 7.65345 0.222706 7.88398 0.33735C8.11451 0.451994 8.31595 0.617556 8.47307 0.821517L27.6311 25.6282C28.0654 26.1898 27.6669 27.007 26.9594 27.007H21.3457C21.0838 27.0068 20.8255 26.946 20.591 26.8295C20.3564 26.713 20.152 26.5439 19.9936 26.3353L14.6499 18.9869L8.73634 26.3584C8.57737 26.5605 8.37463 26.7238 8.14338 26.8362C7.91214 26.9485 7.65841 27.0069 7.40131 27.007H1.77289C1.06183 27.007 0.664546 26.1822 1.10558 25.6219L10.4865 13.683L1.09723 1.49002C0.667728 0.92571 1.07257 0.110855 1.78045 0.116821L1.77965 0.116025ZM26.953 0.116025C27.6673 0.110458 28.0701 0.938436 27.6271 1.50116L19.2555 12.1301C18.6589 11.658 14.0247 7.75951 18.4951 2.53991L19.1847 1.72863L19.3096 1.58149C19.6003 1.23869 19.8771 0.911393 19.9614 0.809188C20.4032 0.271122 20.7671 0.163747 21.2829 0.15977L26.953 0.116025Z" fill="white"/>
<path d="M36.8028 0.995674C37.6833 0.995674 38.4528 1.09231 39.1114 1.28559C39.7699 1.47886 40.2997 1.68287 40.7005 1.89762C41.1014 2.11237 41.3448 2.25554 41.4307 2.32712L39.8845 4.91485C39.7699 4.82895 39.5731 4.70368 39.2939 4.53904C39.0219 4.3744 38.6962 4.22765 38.3168 4.0988C37.9446 3.96995 37.5545 3.90553 37.1464 3.90553C36.5952 3.90553 36.1478 4.00574 35.8042 4.20618C35.4678 4.39945 35.2996 4.68936 35.2996 5.07591C35.2996 5.34077 35.3891 5.58057 35.568 5.79532C35.7541 6.00291 36.0333 6.20335 36.4055 6.39662C36.7849 6.58274 37.2645 6.78675 37.8444 7.00866C38.3741 7.20193 38.8716 7.431 39.3369 7.69585C39.8022 7.96071 40.2102 8.27568 40.5609 8.64075C40.9189 8.99867 41.2016 9.41385 41.4092 9.8863C41.6168 10.3587 41.7206 10.8956 41.7206 11.4969C41.7206 12.2127 41.5738 12.8355 41.2804 13.3652C40.9869 13.8878 40.586 14.3209 40.0778 14.6645C39.5767 15.0081 39.004 15.2622 38.3598 15.4268C37.7227 15.5986 37.0605 15.6845 36.3733 15.6845C35.3998 15.6845 34.5265 15.5736 33.7534 15.3517C32.9874 15.1298 32.3683 14.89 31.8958 14.6323C31.4234 14.3746 31.1406 14.2028 31.0475 14.1169L32.6474 11.4218C32.7333 11.4862 32.898 11.59 33.1414 11.7331C33.3919 11.8763 33.6961 12.0266 34.054 12.1841C34.412 12.3344 34.7913 12.4633 35.1922 12.5707C35.6002 12.678 36.0011 12.7317 36.3948 12.7317C37.0534 12.7317 37.5473 12.6065 37.8766 12.3559C38.2059 12.0982 38.3705 11.7618 38.3705 11.3466C38.3705 11.0388 38.2667 10.7632 38.0591 10.5198C37.8515 10.2764 37.5401 10.0474 37.125 9.83261C36.7098 9.6107 36.1908 9.37806 35.568 9.13467C34.9452 8.88413 34.3618 8.5799 33.8178 8.22199C33.2809 7.86407 32.8443 7.41668 32.5078 6.87981C32.1714 6.34293 32.0032 5.67721 32.0032 4.88264C32.0032 4.08806 32.2251 3.40087 32.6689 2.82104C33.1199 2.23406 33.7104 1.78309 34.4406 1.46812C35.1779 1.15316 35.9653 0.995674 36.8028 0.995674Z" fill="white"/>
<path d="M46.2963 4.06659H42.914V1.25337H52.8783V4.06659H49.5068V15.4268H46.2963V4.06659Z" fill="white"/>
<path d="M57.6248 1.25337H60.8138L66.408 15.4268H62.9828L61.952 12.5814H56.4974L55.4558 15.4268H52.0198L57.6248 1.25337ZM57.5711 9.76818H60.889L59.2461 5.11886H59.2139L57.5711 9.76818Z" fill="white"/>
<path d="M68.7988 4.06659H65.4165V1.25337H75.3809V4.06659H72.0093V15.4268H68.7988V4.06659Z" fill="white"/>
<path d="M77.1046 1.25337H86.1562V4.06659H80.3043V6.95497H86.1026V9.68228H80.3043V12.6136H86.1562V15.4268H77.1046V1.25337Z" fill="white"/>
<path d="M31.6926 21.3589H32.5945V20.108C32.5945 19.6606 32.6715 19.3009 32.8254 19.0288C32.9829 18.7568 33.1815 18.56 33.4213 18.4383C33.6647 18.313 33.9135 18.2504 34.1676 18.2504C34.4754 18.2504 34.7116 18.2933 34.8763 18.3792C35.0445 18.4651 35.1447 18.5224 35.1769 18.551L34.8011 19.2651C34.7832 19.2436 34.7277 19.2042 34.6347 19.147C34.5416 19.0897 34.4145 19.0611 34.2535 19.0611C34.1354 19.0611 34.0208 19.0897 33.9099 19.147C33.7989 19.2042 33.7059 19.3152 33.6307 19.4798C33.5555 19.6445 33.518 19.8896 33.518 20.2153V21.3589H34.7742V22.1588H33.518V25.7666H32.5945V22.1588H31.6926V21.3589Z" fill="white"/>
<path d="M37.6589 25.8955C37.2043 25.8955 36.7999 25.7935 36.4455 25.5894C36.0948 25.3854 35.8192 25.1098 35.6187 24.7627C35.4183 24.4119 35.3181 24.0164 35.3181 23.5762C35.3181 23.1359 35.4183 22.7386 35.6187 22.3843C35.8192 22.03 36.0948 21.749 36.4455 21.5414C36.7999 21.3338 37.2043 21.23 37.6589 21.23C38.1098 21.23 38.5089 21.3338 38.8561 21.5414C39.2068 21.749 39.4806 22.03 39.6775 22.3843C39.8743 22.7386 39.9728 23.1359 39.9728 23.5762C39.9728 24.0164 39.8743 24.4119 39.6775 24.7627C39.4806 25.1098 39.2068 25.3854 38.8561 25.5894C38.5089 25.7935 38.1098 25.8955 37.6589 25.8955ZM37.6589 25.0955C37.9452 25.0955 38.1939 25.0293 38.4051 24.8969C38.6199 24.7644 38.7863 24.5837 38.9044 24.3546C39.0225 24.122 39.0816 23.8607 39.0816 23.5708C39.0816 23.2809 39.0225 23.0196 38.9044 22.787C38.7863 22.5543 38.6199 22.37 38.4051 22.234C38.1939 22.098 37.9452 22.03 37.6589 22.03C37.3689 22.03 37.1166 22.098 36.9019 22.234C36.6871 22.37 36.5189 22.5543 36.3972 22.787C36.2791 23.0196 36.22 23.2809 36.22 23.5708C36.22 23.8607 36.2791 24.122 36.3972 24.3546C36.5189 24.5837 36.6871 24.7644 36.9019 24.8969C37.1166 25.0293 37.3689 25.0955 37.6589 25.0955Z" fill="white"/>
<path d="M41.9265 25.7666H40.9977V21.3589H41.9265V22.1212H41.8996C41.9175 22.0282 41.9838 21.9119 42.0983 21.7723C42.2128 21.6327 42.3703 21.5074 42.5707 21.3965C42.7712 21.2855 43.011 21.23 43.2901 21.23C43.4942 21.23 43.6731 21.2587 43.827 21.3159C43.9845 21.3696 44.0955 21.4233 44.1599 21.477L43.7787 22.2501C43.7286 22.2 43.6409 22.1499 43.5156 22.0998C43.3904 22.0461 43.2347 22.0192 43.0486 22.0192C42.8123 22.0192 42.6101 22.0926 42.4419 22.2394C42.2737 22.3861 42.1448 22.5633 42.0553 22.7709C41.9694 22.9749 41.9265 23.1646 41.9265 23.3399V25.7666Z" fill="white"/>
<path d="M48.0214 23.7533C48.025 24.0182 48.0823 24.2598 48.1932 24.4781C48.3042 24.6964 48.4688 24.87 48.6872 24.9989C48.9091 25.1277 49.1811 25.1922 49.5032 25.1922C49.7752 25.1922 50.0061 25.1528 50.1958 25.074C50.389 24.9917 50.5465 24.8951 50.6682 24.7841C50.7899 24.6696 50.8776 24.5676 50.9313 24.4781L51.3876 25.0418C51.2695 25.2136 51.1246 25.364 50.9528 25.4928C50.7845 25.6217 50.5787 25.7201 50.3354 25.7881C50.092 25.8597 49.7949 25.8955 49.4441 25.8955C48.9717 25.8955 48.5619 25.7952 48.2147 25.5948C47.8711 25.3908 47.6062 25.1098 47.4201 24.7519C47.234 24.3904 47.141 23.977 47.141 23.5117C47.141 23.0822 47.2286 22.6957 47.404 22.3521C47.5794 22.0049 47.8335 21.7311 48.1664 21.5307C48.5028 21.3302 48.9073 21.23 49.3797 21.23C49.8128 21.23 50.1886 21.3213 50.5072 21.5038C50.8293 21.6828 51.078 21.9369 51.2534 22.2662C51.4324 22.5955 51.5218 22.9892 51.5218 23.4473C51.5218 23.4759 51.5201 23.5278 51.5165 23.603C51.5129 23.6746 51.5093 23.7247 51.5057 23.7533H48.0214ZM50.6306 23.05C50.6271 22.9033 50.5841 22.7422 50.5018 22.5668C50.423 22.3915 50.2942 22.2411 50.1152 22.1159C49.9363 21.9906 49.6947 21.928 49.3905 21.928C49.0755 21.928 48.8214 21.9888 48.6281 22.1105C48.4384 22.2322 48.2988 22.3807 48.2093 22.5561C48.1199 22.7279 48.068 22.8925 48.0536 23.05H50.6306Z" fill="white"/>
<path d="M52.1131 21.3589H53.117L54.5558 24.9022L55.9947 21.3589H56.9933L55.1088 25.7666H54.0082L52.1131 21.3589Z" fill="white"/>
<path d="M58.4548 23.7533C58.4584 24.0182 58.5157 24.2598 58.6266 24.4781C58.7376 24.6964 58.9022 24.87 59.1205 24.9989C59.3424 25.1277 59.6145 25.1922 59.9366 25.1922C60.2086 25.1922 60.4394 25.1528 60.6291 25.074C60.8224 24.9917 60.9799 24.8951 61.1016 24.7841C61.2233 24.6696 61.311 24.5676 61.3647 24.4781L61.821 25.0418C61.7029 25.2136 61.5579 25.364 61.3861 25.4928C61.2179 25.6217 61.0121 25.7201 60.7687 25.7881C60.5253 25.8597 60.2283 25.8955 59.8775 25.8955C59.4051 25.8955 58.9953 25.7952 58.6481 25.5948C58.3045 25.3908 58.0396 25.1098 57.8535 24.7519C57.6674 24.3904 57.5743 23.977 57.5743 23.5117C57.5743 23.0822 57.662 22.6957 57.8374 22.3521C58.0128 22.0049 58.2669 21.7311 58.5998 21.5307C58.9362 21.3302 59.3406 21.23 59.8131 21.23C60.2462 21.23 60.622 21.3213 60.9405 21.5038C61.2627 21.6828 61.5114 21.9369 61.6868 22.2662C61.8657 22.5955 61.9552 22.9892 61.9552 23.4473C61.9552 23.4759 61.9534 23.5278 61.9498 23.603C61.9463 23.6746 61.9427 23.7247 61.9391 23.7533H58.4548ZM61.064 23.05C61.0604 22.9033 61.0175 22.7422 60.9352 22.5668C60.8564 22.3915 60.7276 22.2411 60.5486 22.1159C60.3697 21.9906 60.1281 21.928 59.8238 21.928C59.5089 21.928 59.2547 21.9888 59.0615 22.1105C58.8718 22.2322 58.7322 22.3807 58.6427 22.5561C58.5532 22.7279 58.5013 22.8925 58.487 23.05H61.064Z" fill="white"/>
<path d="M63.9047 25.7666H62.9759V21.3589H63.9047V22.1212H63.8779C63.8958 22.0282 63.962 21.9119 64.0765 21.7723C64.1911 21.6327 64.3486 21.5074 64.549 21.3965C64.7494 21.2855 64.9892 21.23 65.2684 21.23C65.4724 21.23 65.6514 21.2587 65.8053 21.3159C65.9628 21.3696 66.0737 21.4233 66.1381 21.477L65.757 22.2501C65.7068 22.2 65.6192 22.1499 65.4939 22.0998C65.3686 22.0461 65.2129 22.0192 65.0268 22.0192C64.7906 22.0192 64.5884 22.0926 64.4201 22.2394C64.2519 22.3861 64.1231 22.5633 64.0336 22.7709C63.9477 22.9749 63.9047 23.1646 63.9047 23.3399V25.7666Z" fill="white"/>
<path d="M68.5713 24.913L70.0585 21.3589H70.9926L68.0184 28H67.0735L68.072 25.7666L66.2574 21.3589H67.2077L68.5713 24.913Z" fill="white"/>
<path d="M73.7405 25.8955C73.286 25.8955 72.8815 25.7935 72.5272 25.5894C72.1764 25.3854 71.9008 25.1098 71.7004 24.7627C71.5 24.4119 71.3997 24.0164 71.3997 23.5762C71.3997 23.1359 71.5 22.7386 71.7004 22.3843C71.9008 22.03 72.1764 21.749 72.5272 21.5414C72.8815 21.3338 73.286 21.23 73.7405 21.23C74.1915 21.23 74.5906 21.3338 74.9377 21.5414C75.2885 21.749 75.5623 22.03 75.7592 22.3843C75.956 22.7386 76.0544 23.1359 76.0544 23.5762C76.0544 24.0164 75.956 24.4119 75.7592 24.7627C75.5623 25.1098 75.2885 25.3854 74.9377 25.5894C74.5906 25.7935 74.1915 25.8955 73.7405 25.8955ZM73.7405 25.0955C74.0268 25.0955 74.2756 25.0293 74.4868 24.8969C74.7015 24.7644 74.8679 24.5837 74.9861 24.3546C75.1042 24.122 75.1632 23.8607 75.1632 23.5708C75.1632 23.2809 75.1042 23.0196 74.9861 22.787C74.8679 22.5543 74.7015 22.37 74.4868 22.234C74.2756 22.098 74.0268 22.03 73.7405 22.03C73.4506 22.03 73.1983 22.098 72.9835 22.234C72.7688 22.37 72.6005 22.5543 72.4789 22.787C72.3607 23.0196 72.3017 23.2809 72.3017 23.5708C72.3017 23.8607 72.3607 24.122 72.4789 24.3546C72.6005 24.5837 72.7688 24.7644 72.9835 24.8969C73.1983 25.0293 73.4506 25.0955 73.7405 25.0955Z" fill="white"/>
<path d="M79.5543 21.23C79.8443 21.23 80.1252 21.2909 80.3972 21.4126C80.6728 21.5343 80.8983 21.7275 81.0737 21.9924C81.2527 22.2537 81.3421 22.5955 81.3421 23.0178V25.7666H80.3972V23.2004C80.3972 22.7637 80.2952 22.4469 80.0912 22.2501C79.8872 22.0497 79.6241 21.9494 79.302 21.9494C79.0908 21.9494 78.8868 22.0103 78.69 22.132C78.4967 22.2501 78.3374 22.4147 78.2122 22.6259C78.0869 22.8335 78.0243 23.0697 78.0243 23.3346V25.7666H77.0901V21.3589H78.0243V22.1427C78.0565 22.021 78.1442 21.8886 78.2873 21.7454C78.4305 21.6023 78.613 21.4806 78.8349 21.3804C79.0568 21.2801 79.2966 21.23 79.5543 21.23Z" fill="white"/>
<path d="M83.1489 23.7533C83.1525 24.0182 83.2097 24.2598 83.3207 24.4781C83.4316 24.6964 83.5963 24.87 83.8146 24.9989C84.0365 25.1277 84.3085 25.1922 84.6306 25.1922C84.9027 25.1922 85.1335 25.1528 85.3232 25.074C85.5165 24.9917 85.674 24.8951 85.7957 24.7841C85.9174 24.6696 86.005 24.5676 86.0587 24.4781L86.5151 25.0418C86.397 25.2136 86.252 25.364 86.0802 25.4928C85.912 25.6217 85.7062 25.7201 85.4628 25.7881C85.2194 25.8597 84.9223 25.8955 84.5716 25.8955C84.0991 25.8955 83.6893 25.7952 83.3421 25.5948C82.9986 25.3908 82.7337 25.1098 82.5476 24.7519C82.3615 24.3904 82.2684 23.977 82.2684 23.5117C82.2684 23.0822 82.3561 22.6957 82.5315 22.3521C82.7069 22.0049 82.961 21.7311 83.2938 21.5307C83.6303 21.3302 84.0347 21.23 84.5072 21.23C84.9402 21.23 85.3161 21.3213 85.6346 21.5038C85.9567 21.6828 86.2055 21.9369 86.3809 22.2662C86.5598 22.5955 86.6493 22.9892 86.6493 23.4473C86.6493 23.4759 86.6475 23.5278 86.6439 23.603C86.6403 23.6746 86.6368 23.7247 86.6332 23.7533H83.1489ZM85.7581 23.05C85.7545 22.9033 85.7116 22.7422 85.6292 22.5668C85.5505 22.3915 85.4216 22.2411 85.2427 22.1159C85.0637 21.9906 84.8221 21.928 84.5179 21.928C84.2029 21.928 83.9488 21.9888 83.7555 22.1105C83.5658 22.2322 83.4263 22.3807 83.3368 22.5561C83.2473 22.7279 83.1954 22.8925 83.1811 23.05H85.7581Z" fill="white"/>
</svg>
